<mxfile host="app.diagrams.net" modified="2023-09-09T04:51:49.254Z" agent="Mozilla/5.0 (X11; Ubuntu; Linux x86_64; rv:109.0) Gecko/20100101 Firefox/117.0" etag="JUIPeuVg3HDfZzLqiUqj" version="21.7.4" type="github">
  <diagram id="C5RBs43oDa-KdzZeNtuy" name="Page-1">
    <mxGraphModel dx="1366" dy="795" grid="1" gridSize="10" guides="1" tooltips="1" connect="1" arrows="1" fold="1" page="1" pageScale="1" pageWidth="827" pageHeight="1169" math="0" shadow="0">
      <root>
        <mxCell id="WIyWlLk6GJQsqaUBKTNV-0" />
        <mxCell id="WIyWlLk6GJQsqaUBKTNV-1" parent="WIyWlLk6GJQsqaUBKTNV-0" />
        <mxCell id="WIyWlLk6GJQsqaUBKTNV-2" value="" style="rounded=0;html=1;jettySize=auto;orthogonalLoop=1;fontSize=11;endArrow=block;endFill=0;endSize=8;strokeWidth=1;shadow=0;labelBackgroundColor=none;edgeStyle=orthogonalEdgeStyle;" parent="WIyWlLk6GJQsqaUBKTNV-1" edge="1">
          <mxGeometry relative="1" as="geometry">
            <mxPoint x="439" y="138" as="sourcePoint" />
            <mxPoint x="439" y="188" as="targetPoint" />
          </mxGeometry>
        </mxCell>
        <mxCell id="WIyWlLk6GJQsqaUBKTNV-3" value="Start" style="rounded=1;whiteSpace=wrap;html=1;fontSize=12;glass=0;strokeWidth=1;shadow=0;" parent="WIyWlLk6GJQsqaUBKTNV-1" vertex="1">
          <mxGeometry x="379" y="96" width="120" height="40" as="geometry" />
        </mxCell>
        <mxCell id="WIyWlLk6GJQsqaUBKTNV-4" value="" style="rounded=0;html=1;jettySize=auto;orthogonalLoop=1;fontSize=11;endArrow=block;endFill=0;endSize=8;strokeWidth=1;shadow=0;labelBackgroundColor=none;edgeStyle=orthogonalEdgeStyle;" parent="WIyWlLk6GJQsqaUBKTNV-1" edge="1">
          <mxGeometry y="20" relative="1" as="geometry">
            <mxPoint as="offset" />
            <mxPoint x="439" y="230" as="sourcePoint" />
            <mxPoint x="439" y="270" as="targetPoint" />
          </mxGeometry>
        </mxCell>
        <mxCell id="WIyWlLk6GJQsqaUBKTNV-8" value="" style="rounded=0;html=1;jettySize=auto;orthogonalLoop=1;fontSize=11;endArrow=block;endFill=0;endSize=8;strokeWidth=1;shadow=0;labelBackgroundColor=none;edgeStyle=orthogonalEdgeStyle;" parent="WIyWlLk6GJQsqaUBKTNV-1" edge="1">
          <mxGeometry x="0.3333" y="20" relative="1" as="geometry">
            <mxPoint as="offset" />
            <mxPoint x="439" y="317" as="sourcePoint" />
            <mxPoint x="439" y="377" as="targetPoint" />
          </mxGeometry>
        </mxCell>
        <mxCell id="WIyWlLk6GJQsqaUBKTNV-11" value="Ask the user to guess a letter" style="rounded=1;whiteSpace=wrap;html=1;fontSize=12;glass=0;strokeWidth=1;shadow=0;" parent="WIyWlLk6GJQsqaUBKTNV-1" vertex="1">
          <mxGeometry x="381" y="380" width="120" height="40" as="geometry" />
        </mxCell>
        <mxCell id="3rvdqEm6kUL-F_6ZcyxB-1" value="Generate a random word" style="rounded=1;whiteSpace=wrap;html=1;fontSize=12;glass=0;strokeWidth=1;shadow=0;" vertex="1" parent="WIyWlLk6GJQsqaUBKTNV-1">
          <mxGeometry x="379" y="190" width="120" height="40" as="geometry" />
        </mxCell>
        <mxCell id="3rvdqEm6kUL-F_6ZcyxB-3" value="Generate as many blanks as letters in word" style="rounded=1;whiteSpace=wrap;html=1;fontSize=12;glass=0;strokeWidth=1;shadow=0;" vertex="1" parent="WIyWlLk6GJQsqaUBKTNV-1">
          <mxGeometry x="379" y="270" width="120" height="40" as="geometry" />
        </mxCell>
        <mxCell id="3rvdqEm6kUL-F_6ZcyxB-4" value="" style="rounded=0;html=1;jettySize=auto;orthogonalLoop=1;fontSize=11;endArrow=block;endFill=0;endSize=8;strokeWidth=1;shadow=0;labelBackgroundColor=none;edgeStyle=orthogonalEdgeStyle;" edge="1" parent="WIyWlLk6GJQsqaUBKTNV-1" target="3rvdqEm6kUL-F_6ZcyxB-5">
          <mxGeometry x="0.3333" y="20" relative="1" as="geometry">
            <mxPoint as="offset" />
            <mxPoint x="440" y="422" as="sourcePoint" />
            <mxPoint x="440" y="482" as="targetPoint" />
          </mxGeometry>
        </mxCell>
        <mxCell id="3rvdqEm6kUL-F_6ZcyxB-5" value="&lt;div&gt;is the guessed&lt;/div&gt;&lt;div&gt;letter in the word&lt;br&gt;&lt;/div&gt;" style="rhombus;whiteSpace=wrap;html=1;" vertex="1" parent="WIyWlLk6GJQsqaUBKTNV-1">
          <mxGeometry x="386" y="490" width="108" height="108" as="geometry" />
        </mxCell>
        <mxCell id="3rvdqEm6kUL-F_6ZcyxB-8" value="" style="edgeStyle=elbowEdgeStyle;elbow=horizontal;endArrow=classic;html=1;curved=0;rounded=0;endSize=8;startSize=8;" edge="1" parent="WIyWlLk6GJQsqaUBKTNV-1">
          <mxGeometry width="50" height="50" relative="1" as="geometry">
            <mxPoint x="283" y="736" as="sourcePoint" />
            <mxPoint x="380" y="396" as="targetPoint" />
            <Array as="points">
              <mxPoint x="240" y="506" />
            </Array>
          </mxGeometry>
        </mxCell>
        <mxCell id="3rvdqEm6kUL-F_6ZcyxB-12" value="" style="edgeStyle=segmentEdgeStyle;endArrow=classic;html=1;curved=0;rounded=0;endSize=8;startSize=8;entryX=0.5;entryY=0;entryDx=0;entryDy=0;" edge="1" parent="WIyWlLk6GJQsqaUBKTNV-1" target="3rvdqEm6kUL-F_6ZcyxB-14">
          <mxGeometry width="50" height="50" relative="1" as="geometry">
            <mxPoint x="385" y="544" as="sourcePoint" />
            <mxPoint x="335" y="594" as="targetPoint" />
          </mxGeometry>
        </mxCell>
        <mxCell id="3rvdqEm6kUL-F_6ZcyxB-13" value="" style="edgeStyle=segmentEdgeStyle;endArrow=classic;html=1;curved=0;rounded=0;endSize=8;startSize=8;entryX=0.5;entryY=0;entryDx=0;entryDy=0;" edge="1" parent="WIyWlLk6GJQsqaUBKTNV-1" target="3rvdqEm6kUL-F_6ZcyxB-15">
          <mxGeometry width="50" height="50" relative="1" as="geometry">
            <mxPoint x="494" y="542" as="sourcePoint" />
            <mxPoint x="544" y="592" as="targetPoint" />
          </mxGeometry>
        </mxCell>
        <mxCell id="3rvdqEm6kUL-F_6ZcyxB-14" value="Replace the blank with the letter" style="rounded=1;whiteSpace=wrap;html=1;fontSize=12;glass=0;strokeWidth=1;shadow=0;" vertex="1" parent="WIyWlLk6GJQsqaUBKTNV-1">
          <mxGeometry x="278" y="623" width="120" height="40" as="geometry" />
        </mxCell>
        <mxCell id="3rvdqEm6kUL-F_6ZcyxB-15" value="Lose a life" style="rounded=1;whiteSpace=wrap;html=1;fontSize=12;glass=0;strokeWidth=1;shadow=0;" vertex="1" parent="WIyWlLk6GJQsqaUBKTNV-1">
          <mxGeometry x="488" y="624" width="120" height="40" as="geometry" />
        </mxCell>
        <mxCell id="3rvdqEm6kUL-F_6ZcyxB-16" value="Yes" style="text;html=1;align=center;verticalAlign=middle;resizable=0;points=[];autosize=1;strokeColor=none;fillColor=none;" vertex="1" parent="WIyWlLk6GJQsqaUBKTNV-1">
          <mxGeometry x="301" y="558" width="40" height="30" as="geometry" />
        </mxCell>
        <mxCell id="3rvdqEm6kUL-F_6ZcyxB-17" value="No" style="text;html=1;align=center;verticalAlign=middle;resizable=0;points=[];autosize=1;strokeColor=none;fillColor=none;" vertex="1" parent="WIyWlLk6GJQsqaUBKTNV-1">
          <mxGeometry x="551" y="558" width="40" height="30" as="geometry" />
        </mxCell>
        <mxCell id="3rvdqEm6kUL-F_6ZcyxB-18" value="&lt;div&gt;Are all the &lt;br&gt;&lt;/div&gt;&lt;div&gt;blank fillled?&lt;br&gt;&lt;/div&gt;" style="rhombus;whiteSpace=wrap;html=1;" vertex="1" parent="WIyWlLk6GJQsqaUBKTNV-1">
          <mxGeometry x="284" y="702" width="108" height="68" as="geometry" />
        </mxCell>
        <mxCell id="3rvdqEm6kUL-F_6ZcyxB-19" value="&lt;div&gt;Have the run&amp;nbsp;&lt;/div&gt;&lt;div&gt;out of lives?&lt;/div&gt;" style="rhombus;whiteSpace=wrap;html=1;" vertex="1" parent="WIyWlLk6GJQsqaUBKTNV-1">
          <mxGeometry x="495" y="702" width="108" height="70" as="geometry" />
        </mxCell>
        <mxCell id="3rvdqEm6kUL-F_6ZcyxB-20" value="" style="rounded=0;html=1;jettySize=auto;orthogonalLoop=1;fontSize=11;endArrow=block;endFill=0;endSize=8;strokeWidth=1;shadow=0;labelBackgroundColor=none;edgeStyle=orthogonalEdgeStyle;" edge="1" parent="WIyWlLk6GJQsqaUBKTNV-1">
          <mxGeometry x="0.3333" y="20" relative="1" as="geometry">
            <mxPoint as="offset" />
            <mxPoint x="337.5" y="663" as="sourcePoint" />
            <mxPoint x="337.5" y="703" as="targetPoint" />
          </mxGeometry>
        </mxCell>
        <mxCell id="3rvdqEm6kUL-F_6ZcyxB-22" value="" style="rounded=0;html=1;jettySize=auto;orthogonalLoop=1;fontSize=11;endArrow=block;endFill=0;endSize=8;strokeWidth=1;shadow=0;labelBackgroundColor=none;edgeStyle=orthogonalEdgeStyle;" edge="1" parent="WIyWlLk6GJQsqaUBKTNV-1">
          <mxGeometry x="0.3333" y="20" relative="1" as="geometry">
            <mxPoint as="offset" />
            <mxPoint x="548.5" y="664" as="sourcePoint" />
            <mxPoint x="548.5" y="704" as="targetPoint" />
          </mxGeometry>
        </mxCell>
        <mxCell id="3rvdqEm6kUL-F_6ZcyxB-23" value="" style="edgeStyle=elbowEdgeStyle;elbow=horizontal;endArrow=classic;html=1;curved=0;rounded=0;endSize=8;startSize=8;exitX=1;exitY=0.5;exitDx=0;exitDy=0;" edge="1" parent="WIyWlLk6GJQsqaUBKTNV-1" source="3rvdqEm6kUL-F_6ZcyxB-19">
          <mxGeometry width="50" height="50" relative="1" as="geometry">
            <mxPoint x="610" y="740" as="sourcePoint" />
            <mxPoint x="500" y="396" as="targetPoint" />
            <Array as="points">
              <mxPoint x="640" y="506" />
            </Array>
          </mxGeometry>
        </mxCell>
        <mxCell id="3rvdqEm6kUL-F_6ZcyxB-25" value="" style="shape=partialRectangle;whiteSpace=wrap;html=1;bottom=1;right=1;left=1;top=0;fillColor=none;routingCenterX=-0.5;" vertex="1" parent="WIyWlLk6GJQsqaUBKTNV-1">
          <mxGeometry x="339" y="770" width="210" height="60" as="geometry" />
        </mxCell>
        <mxCell id="3rvdqEm6kUL-F_6ZcyxB-27" value="&lt;div&gt;Yes&lt;/div&gt;" style="text;html=1;strokeColor=none;fillColor=none;align=center;verticalAlign=middle;whiteSpace=wrap;rounded=0;" vertex="1" parent="WIyWlLk6GJQsqaUBKTNV-1">
          <mxGeometry x="332" y="780" width="60" height="30" as="geometry" />
        </mxCell>
        <mxCell id="3rvdqEm6kUL-F_6ZcyxB-28" value="&lt;div&gt;Yes&lt;/div&gt;" style="text;html=1;strokeColor=none;fillColor=none;align=center;verticalAlign=middle;whiteSpace=wrap;rounded=0;" vertex="1" parent="WIyWlLk6GJQsqaUBKTNV-1">
          <mxGeometry x="484" y="778" width="60" height="30" as="geometry" />
        </mxCell>
        <mxCell id="3rvdqEm6kUL-F_6ZcyxB-29" value="No" style="text;html=1;strokeColor=none;fillColor=none;align=center;verticalAlign=middle;whiteSpace=wrap;rounded=0;" vertex="1" parent="WIyWlLk6GJQsqaUBKTNV-1">
          <mxGeometry x="581" y="747" width="60" height="30" as="geometry" />
        </mxCell>
        <mxCell id="3rvdqEm6kUL-F_6ZcyxB-30" value="No" style="text;html=1;strokeColor=none;fillColor=none;align=center;verticalAlign=middle;whiteSpace=wrap;rounded=0;" vertex="1" parent="WIyWlLk6GJQsqaUBKTNV-1">
          <mxGeometry x="253" y="749" width="60" height="30" as="geometry" />
        </mxCell>
        <mxCell id="3rvdqEm6kUL-F_6ZcyxB-31" value="" style="rounded=0;html=1;jettySize=auto;orthogonalLoop=1;fontSize=11;endArrow=block;endFill=0;endSize=8;strokeWidth=1;shadow=0;labelBackgroundColor=none;edgeStyle=orthogonalEdgeStyle;" edge="1" parent="WIyWlLk6GJQsqaUBKTNV-1">
          <mxGeometry x="0.3333" y="20" relative="1" as="geometry">
            <mxPoint as="offset" />
            <mxPoint x="438.5" y="830" as="sourcePoint" />
            <mxPoint x="438.5" y="870" as="targetPoint" />
          </mxGeometry>
        </mxCell>
        <mxCell id="3rvdqEm6kUL-F_6ZcyxB-32" value="Game Over" style="rounded=1;whiteSpace=wrap;html=1;fontSize=12;glass=0;strokeWidth=1;shadow=0;" vertex="1" parent="WIyWlLk6GJQsqaUBKTNV-1">
          <mxGeometry x="374" y="872" width="120" height="40" as="geometry" />
        </mxCell>
      </root>
    </mxGraphModel>
  </diagram>
</mxfile>
